Coordinates
version=1
nRows=29
nColumns=24
inDegrees=yes

Units are S.I. units (second, meters, Newtons, ...)
Angles are in degrees.

endheader
time	pelvis_tilt	pelvis_list	pelvis_rotation	pelvis_tx	pelvis_ty	pelvis_tz	hip_flexion_r	hip_adduction_r	hip_rotation_r	knee_angle_r	ankle_angle_r	subtalar_angle_r	mtp_angle_r	hip_flexion_l	hip_adduction_l	hip_rotation_l	knee_angle_l	ankle_angle_l	subtalar_angle_l	mtp_angle_l	lumbar_extension	lumbar_bending	lumbar_rotation
      0.80050000	      0.41893422	     -3.09145932	     -1.42754191	     -0.46136075	      1.06862157	      0.34608122	      8.68242947	      8.43288097	     -3.84238067	    -12.16324917	      1.01424614	     -8.87357401	     -0.08065482	     13.47022040	     -5.63411148	     -3.61483192	    -67.27857962	     -3.21293888	     -2.29772503	      5.06832559	      4.73761851	      6.83569652	     -2.51586407
      0.80466667	      0.41997272	     -3.05413524	     -1.42340918	     -0.45630472	      1.06918972	      0.34642327	      8.29210899	      8.43360714	     -3.66456705	    -11.98906134	      1.13437781	     -8.88167802	     -0.08298152	     14.09397526	     -5.57508786	     -3.38772162	    -67.21818544	     -2.79602120	     -2.34352937	      5.04174861	      4.67971301	      6.72278106	     -2.43330190
      0.80883333	      0.43079340	     -2.98585502	     -1.43606858	     -0.45126542	      1.06976526	      0.34666546	      7.89567290	      8.38847505	     -3.50468501	    -11.82386062	      1.30734933	     -8.94379744	     -0.08687069	     14.68666943	     -5.46408374	     -3.18728796	    -67.10523049	     -2.23239513	     -2.41206780	      5.01412245	      4.63372484	      6.61689332	     -2.33973033
      0.81300000	      0.44754293	     -2.92744335	     -1.46253016	     -0.44624689	      1.07032762	      0.34692638	      7.49415730	      8.35593118	     -3.33775383	    -11.67029044	      1.46952498	     -9.00766134	     -0.09171541	     15.25453749	     -5.36377560	     -2.99393101	    -66.92146656	     -1.68723434	     -2.45369314	      4.98649501	      4.57793910	      6.52645954	     -2.24691604
      0.81716667	      0.46677320	     -2.86171485	     -1.49536106	     -0.44121460	      1.07088427	      0.34720097	      7.08490754	      8.31663222	     -3.16470631	    -11.50353924	      1.63132356	     -9.07790584	     -0.09781760	     15.79892337	     -5.25452398	     -2.81418320	    -66.67198973	     -1.13458599	     -2.48017553	      4.95738850	      4.52450098	      6.42919148	     -2.14764695
      0.82133333	      0.49148581	     -2.78162957	     -1.58688855	     -0.43620931	      1.07143826	      0.34748170	      6.68273904	      8.25886641	     -3.00104497	    -11.37478288	      1.81680242	     -9.22006797	     -0.11244874	     16.30476400	     -5.13472498	     -2.69856051	    -66.35854288	     -0.45473378	     -2.41626759	      4.89997685	      4.43962831	      6.38792827	     -2.00657738
      0.82550000	      0.50910445	     -2.73742833	     -1.58629569	     -0.43119754	      1.07193448	      0.34776619	      6.25738891	      8.24741167	     -2.79211852	    -11.15951192	      1.92289637	     -9.25430921	     -0.12049726	     16.83099665	     -5.04292996	     -2.49216291	    -65.99378663	     -0.06480241	     -2.44324981	      4.86698157	      4.38992567	      6.26846271	     -1.91100854
      0.82966667	      0.52731651	     -2.66934808	     -1.62691643	     -0.42615069	      1.07243736	      0.34801911	      5.83670342	      8.20334180	     -2.60341865	    -10.97133047	      2.07584541	     -9.33992161	     -0.13036850	     17.32068065	     -4.92099003	     -2.33430718	    -65.56019967	      0.44830703	     -2.50416422	      4.83308892	      4.34125105	      6.16157091	     -1.81262465
      0.83383333	      0.54788488	     -2.60630583	     -1.67624910	     -0.42114228	      1.07291431	      0.34827519	      5.41473329	      8.16583810	     -2.40357355	    -10.78238725	      2.22572065	     -9.43882647	     -0.14233125	     17.79117323	     -4.80502818	     -2.18975927	    -65.07001448	      0.95180705	     -2.55578135	      4.79538351	      4.28024429	      6.07623697	     -1.71208115
      0.83800000	      0.58378388	     -2.52954093	     -1.78863520	     -0.41617882	      1.07339304	      0.34859233	      4.98824464	      8.11403405	     -2.18726162	    -10.62246499	      2.38702482	     -9.62673551	     -0.16893109	     18.21237855	     -4.68991017	     -2.11858227	    -64.51636422	      1.54710076	     -2.55148015	      4.71703544	      4.14963032	      6.01895475	     -1.55673046
      0.84216667	      0.60212986	     -2.46794419	     -1.83656485	     -0.41114669	      1.07382483	      0.34886064	      4.55665948	      8.07736789	     -1.97279220	    -10.40998460	      2.50278944	     -9.75299273	     -0.19511111	     18.64565772	     -4.57530450	     -1.98572216	    -63.90460466	      1.97939360	     -2.61148935	      4.63914751	      4.09392856	      5.92426062	     -1.41673961
      0.84633333	      0.60658013	     -2.42756927	     -1.84501218	     -0.40612616	      1.07419009	      0.34907366	      4.13310366	      8.06238374	     -1.77927984	    -10.17219175	      2.59625752	     -9.79935553	     -0.20823761	     19.08844741	     -4.46936614	     -1.81314951	    -63.24295713	      2.28546603	     -2.71094833	      4.59952372	      4.06964679	      5.84385811	     -1.33905936
      0.85050000	      0.63674382	     -2.35180193	     -1.95286246	     -0.40115084	      1.07459483	      0.34937074	      3.69946154	      8.00715836	     -1.55421040	     -9.98599176	      2.75244523	     -9.98636089	     -0.24183326	     19.45592072	     -4.35126261	     -1.76123457	    -62.50793773	      2.78072788	     -2.87947134	      4.50703768	      3.95108411	      5.75765950	     -1.20265908
      0.85466667	      0.64181441	     -2.31259235	     -1.95712853	     -0.39610098	      1.07492149	      0.34954993	      3.26446488	      7.98899811	     -1.36544381	     -9.73100755	      2.83775422	    -10.04320134	     -0.25777136	     19.85428048	     -4.24149920	     -1.59833055	    -61.72729732	      3.04452081	     -3.00559579	      4.46153712	      3.95129499	      5.68881891	     -1.12376408
      0.85883333	      0.67676951	     -2.24477468	     -2.06454821	     -0.39113235	      1.07527999	      0.34984249	      2.81751257	      7.93951722	     -1.13038249	     -9.52315478	      2.97737231	    -10.25256363	     -0.29997097	     20.17608199	     -4.13024721	     -1.56292203	    -60.87614075	      3.46314152	     -3.27680605	      4.34788781	      3.81323811	      5.59843974	     -0.97899717
      0.86300000	      0.67295673	     -2.21278214	     -2.06195392	     -0.38607418	      1.07552959	      0.34999249	      2.38638141	      7.92572656	     -0.95600319	     -9.25579487	      3.05210402	    -10.30515794	     -0.31747501	     20.54100079	     -4.02285139	     -1.40609655	    -59.97988020	      3.67706186	     -3.42998274	      4.29872649	      3.83103123	      5.55337147	     -0.90755870
      0.86716667	      0.67176273	     -2.16438421	     -2.10762730	     -0.38100033	      1.07577485	      0.35017668	      1.95651867	      7.89134204	     -0.76796797	     -9.00503658	      3.16947531	    -10.42337887	     -0.34142956	     20.86415323	     -3.90981947	     -1.31604911	    -59.01533602	      3.97243428	     -3.70881252	      4.23323736	      3.82719854	      5.47369522	     -0.81862190
      0.87133333	      0.68599740	     -2.11902222	     -2.16256116	     -0.37599861	      1.07600125	      0.35038112	      1.51479864	      7.85971373	     -0.55848434	     -8.75879639	      3.27979257	    -10.56859994	     -0.37283569	     21.15260252	     -3.80614870	     -1.24477417	    -57.99501918	      4.21977262	     -4.04659825	      4.14757370	      3.77779980	      5.40080695	     -0.71738120
      0.87550000	      0.67416071	     -2.08694284	     -2.19658406	     -0.37095461	      1.07616021	      0.35054243	      1.09391732	      7.83996219	     -0.38310456	     -8.49506450	      3.36279274	    -10.67264321	     -0.39902890	     21.44964006	     -3.70838417	     -1.15808133	    -56.92189811	      4.39879538	     -4.34244264	      4.07496750	      3.75989545	      5.36517896	     -0.63514364
      0.87966667	      0.66507811	     -2.05309457	     -2.23349925	     -0.36589795	      1.07629047	      0.35069926	      0.66914216	      7.81647527	     -0.20930213	     -8.23275766	      3.45865610	    -10.79458217	     -0.42748278	     21.71783893	     -3.60875476	     -1.08556964	    -55.79006155	      4.57104710	     -4.70702466	      3.99558146	      3.75074473	      5.31482184	     -0.54805597
      0.88383333	      0.65884152	     -2.02229851	     -2.27739000	     -0.36084496	      1.07639476	      0.35086290	      0.23894363	      7.79421087	     -0.02324076	     -7.96546538	      3.54810972	    -10.92771992	     -0.46237717	     21.95626024	     -3.51679374	     -1.03404945	    -54.59673296	      4.69544949	     -5.14584023	      3.89724407	      3.73158681	      5.26516131	     -0.44990035
      0.88800000	      0.64377306	     -1.99622965	     -2.31223525	     -0.35578471	      1.07645454	      0.35099405	     -0.18245030	      7.77436796	      0.14454606	     -7.69624994	      3.62589203	    -11.04646624	     -0.49771925	     22.18319641	     -3.42548674	     -0.97949945	    -53.34822731	      4.77473433	     -5.57563303	      3.79691746	      3.71978507	      5.23331540	     -0.35850472
      0.89216667	      0.62733357	     -1.97793082	     -2.33840826	     -0.35072106	      1.07646663	      0.35110588	     -0.60433466	      7.76176494	      0.30163950	     -7.42100658	      3.70408435	    -11.16271972	     -0.53419102	     22.39037910	     -3.34096635	     -0.93117671	    -52.04971938	      4.83236174	     -6.02656033	      3.69248006	      3.70922909	      5.20862654	     -0.27289857
      0.89633333	      0.60816932	     -1.96000312	     -2.36303569	     -0.34564408	      1.07644651	      0.35120715	     -1.02351771	      7.74685774	      0.44637944	     -7.14817750	      3.77988740	    -11.27693835	     -0.57280855	     22.57393104	     -3.25610451	     -0.88774372	    -50.69112200	      4.85623663	     -6.50788443	      3.58042171	      3.70826025	      5.18111825	     -0.18876410
      0.90050000	      0.57473609	     -1.95232564	     -2.38074299	     -0.34056271	      1.07636377	      0.35129291	     -1.42871515	      7.74186278	      0.58239777	     -6.87035114	      3.84874241	    -11.37962308	     -0.61234471	     22.75256424	     -3.18344429	     -0.85661440	    -49.28488745	      4.85233802	     -6.98971627	      3.46425479	      3.70919199	      5.17277234	     -0.11327985
      0.90466667	      0.60145973	     -1.95635343	     -2.44253165	     -0.33564289	      1.07632936	      0.35140136	     -1.88105017	      7.74191112	      0.77192709	     -6.61750267	      3.87725621	    -11.55369042	     -0.72723425	     22.84626272	     -3.13361243	     -0.88198973	    -47.80857616	      4.57487654	     -7.83874304	      3.13407171	      3.48227835	      5.19301741	      0.04236269
      0.90883333	      0.52113943	     -1.95090225	     -2.43966989	     -0.33047109	      1.07610423	      0.35144884	     -2.23834690	      7.73862356	      0.84931165	     -6.34609406	      3.96446649	    -11.63425990	     -0.79628276	     23.02598528	     -3.05783457	     -0.84563173	    -46.30588623	      4.63886216	     -8.24116367	      2.93762535	      3.55468179	      5.09535745	      0.12429210
      0.91300000	      0.45087543	     -1.98218702	     -2.40469464	     -0.32533516	      1.07581886	      0.35145320	     -2.60869106	      7.77752250	      0.91592621	     -6.05871485	      4.03256883	    -11.66758125	     -0.82557813	     23.18838290	     -3.01319626	     -0.79894080	    -44.77807630	      4.68230108	     -8.48086692	      2.84966998	      3.68138020	      5.22133156	      0.14026086
      0.91716667	      0.40129223	     -1.97976963	     -2.44231980	     -0.32022585	      1.07556216	      0.35150566	     -2.99128358	      7.76663416	      1.05930003	     -5.80427465	      4.12721291	    -11.77586951	     -0.90658680	     23.28328251	     -2.95323835	     -0.83506023	    -43.15465359	      4.49660267	     -9.23795156	      2.60292677	      3.64394709	      5.10845163	      0.20855778
